<svg width="30" height="30" viewBox="0 0 30 30" fill="none" xmlns="http://www.w3.org/2000/svg">
<g clip-path="url(#clip0_11_740)">
<path d="M29.9325 1.28607C30.0007 1.1157 30.0174 0.929062 29.9805 0.749294C29.9436 0.569525 29.8548 0.404533 29.725 0.274771C29.5953 0.145009 29.4303 0.0561834 29.2505 0.0193069C29.0708 -0.0175696 28.8841 -0.000875508 28.7138 0.0673195L1.43813 10.9779H1.43625L0.588752 11.3154C0.428234 11.3795 0.288537 11.4866 0.185094 11.6251C0.0816504 11.7635 0.0184857 11.9278 0.00257723 12.0999C-0.0133313 12.272 0.0186355 12.4451 0.0949463 12.6002C0.171257 12.7553 0.288942 12.8862 0.435002 12.9786L1.20375 13.4661L1.20563 13.4698L10.5713 19.4286L13.5525 24.1123C15 26.2498 15 24.3748 15 23.4373C14.9998 22.2459 15.2519 21.068 15.7397 19.981C16.2275 18.8941 16.94 17.9228 17.8302 17.131C18.7205 16.3392 19.7683 15.745 20.9048 15.3873C22.0412 15.0297 23.2405 14.9168 24.4237 15.0561L29.9325 1.28607ZM26.4956 4.82982L12.4444 18.8811L12.0413 18.2473C11.9674 18.131 11.8688 18.0324 11.7525 17.9586L11.1188 17.5554L25.17 3.50419L27.3787 2.62107L26.4975 4.82982H26.4956Z" fill="white"/>
<path d="M30 23.4375C30 25.178 29.3086 26.8472 28.0779 28.0779C26.8472 29.3086 25.178 30 23.4375 30C21.697 30 20.0278 29.3086 18.7971 28.0779C17.5664 26.8472 16.875 25.178 16.875 23.4375C16.875 21.697 17.5664 20.0278 18.7971 18.7971C20.0278 17.5664 21.697 16.875 23.4375 16.875C25.178 16.875 26.8472 17.5664 28.0779 18.7971C29.3086 20.0278 30 21.697 30 23.4375ZM26.2631 20.2894C26.1575 20.2261 26.0404 20.1842 25.9186 20.1661C25.7968 20.1481 25.6726 20.1542 25.5532 20.1842C25.4337 20.2141 25.3214 20.2673 25.2225 20.3407C25.1236 20.4141 25.0401 20.5062 24.9769 20.6119L22.7831 24.2681L21.7575 23.2425C21.5815 23.0665 21.3427 22.9676 21.0938 22.9676C20.8448 22.9676 20.606 23.0665 20.43 23.2425C20.254 23.4185 20.1551 23.6573 20.1551 23.9062C20.1551 24.1552 20.254 24.394 20.43 24.57L21.8813 26.0194C22.0323 26.1707 22.2159 26.2856 22.418 26.3554C22.6202 26.4251 22.8355 26.4478 23.0478 26.4218C23.26 26.3957 23.4635 26.3216 23.6428 26.2051C23.8221 26.0886 23.9725 25.9327 24.0825 25.7494L26.5856 21.5756C26.6489 21.47 26.6908 21.3529 26.7089 21.2311C26.7269 21.1093 26.7208 20.9851 26.6908 20.8657C26.6609 20.7462 26.6077 20.6339 26.5343 20.535C26.4609 20.4361 26.3688 20.3526 26.2631 20.2894Z" fill="white"/>
</g>
<defs>
<clipPath id="clip0_11_740">
<rect width="30" height="30" fill="white"/>
</clipPath>
</defs>
</svg>
