<svg width="30" height="30" viewBox="0 0 30 30" fill="none" xmlns="http://www.w3.org/2000/svg">
<g clip-path="url(#clip0_11_746)">
<path d="M16.5844 3.16992L15.4781 0.369139C15.2953 -0.117189 14.7234 -0.134767 14.5219 0.369139L13.4156 3.16992L10.9641 3.60937C10.5281 3.6914 10.3406 4.36523 10.6641 4.76953L12.4453 6.9375L12.0234 9.99023C11.9578 10.5352 12.4078 10.957 12.8109 10.7051L15.0094 9.25195L17.1937 10.6816C17.5969 10.9336 18.0516 10.5117 17.9813 9.96679L17.5594 6.91406L19.3406 4.76953C19.6594 4.37109 19.4766 3.69726 19.0406 3.60937L16.5891 3.16992H16.5844ZM12 15C11.1703 15 10.5 15.8379 10.5 16.875V28.125C10.5 29.1621 11.1703 30 12 30H18C18.8297 30 19.5 29.1621 19.5 28.125V16.875C19.5 15.8379 18.8297 15 18 15H12ZM1.5 18.75C0.670312 18.75 0 19.5879 0 20.625V28.125C0 29.1621 0.670312 30 1.5 30H7.5C8.32969 30 9 29.1621 9 28.125V20.625C9 19.5879 8.32969 18.75 7.5 18.75H1.5ZM21 24.375V28.125C21 29.1621 21.6703 30 22.5 30H28.5C29.3297 30 30 29.1621 30 28.125V24.375C30 23.3379 29.3297 22.5 28.5 22.5H22.5C21.6703 22.5 21 23.3379 21 24.375Z" fill="white"/>
</g>
<defs>
<clipPath id="clip0_11_746">
<rect width="30" height="30" fill="white"/>
</clipPath>
</defs>
</svg>
